<svg viewBox="0 0 1200 1250" xmlns="http://www.w3.org/2000/svg">
  <defs>
    <style>
      .box { fill: #fff; stroke: #6B46C1; stroke-width: 3; rx: 10; filter: drop-shadow(3px 3px 6px rgba(0,0,0,0.1)); }
      .decision { fill: #FFD700; stroke: #6B46C1; stroke-width: 3; filter: drop-shadow(3px 3px 6px rgba(0,0,0,0.1)); }
      .process { fill: #E6D9F7; stroke: #6B46C1; stroke-width: 3; rx: 10; filter: drop-shadow(3px 3px 6px rgba(0,0,0,0.1)); }
      .terminal { fill: #9F7AEA; stroke: #6B46C1; stroke-width: 3; rx: 25; filter: drop-shadow(3px 3px 6px rgba(0,0,0,0.1)); }
      .info { fill: #FFF8DC; stroke: #FFD700; stroke-width: 2; rx: 8; filter: drop-shadow(2px 2px 4px rgba(0,0,0,0.08)); }
      .text { font-family: Arial, sans-serif; font-size: 14px; text-anchor: middle; fill: #2D1B69; font-weight: 500; }
      .small-text { font-family: Arial, sans-serif; font-size: 12px; text-anchor: middle; fill: #2D1B69; }
      .title-text { font-family: Arial, sans-serif; font-size: 24px; text-anchor: middle; fill: #2D1B69; font-weight: bold; }
      .header-text { font-family: Arial, sans-serif; font-size: 16px; text-anchor: middle; fill: #2D1B69; font-weight: bold; }
      .arrow { stroke: #6B46C1; stroke-width: 3; fill: none; marker-end: url(#arrowhead); }
      .label { font-family: Arial, sans-serif; font-size: 12px; fill: #6B46C1; font-weight: 500; }
      .title-bg { fill: #4A148C; rx: 15; }
    </style>
    <marker id="arrowhead" markerWidth="10" markerHeight="10" refX="9" refY="3" orient="auto">
      <polygon points="0 0, 10 3, 0 6" fill="#6B46C1"/>
    </marker>
  </defs>
  
  <!-- Title -->
  <rect x="350" y="10" width="500" height="40" class="title-bg"/>
  <text x="600" y="40" font-family="Arial" font-size="20" font-weight="bold" fill="#FFD700" text-anchor="middle">🍋 Lemonade Stand Game Flow</text>
  
  <!-- Start -->
  <rect x="450" y="60" width="300" height="60" class="terminal"/>
  <text x="600" y="90" class="header-text">START GAME</text>
  <text x="600" y="105" class="small-text">or Load Save File</text>
  
  <!-- Setup -->
  <rect x="400" y="150" width="400" height="80" class="box"/>
  <text x="600" y="175" class="header-text">Setup Phase</text>
  <text x="600" y="195" class="small-text">• Company Name • Budget ($20-100)</text>
  <text x="600" y="210" class="small-text">• Location • Game Mode</text>
  
  <!-- Daily Loop -->
  <rect x="450" y="260" width="300" height="50" class="terminal"/>
  <text x="600" y="290" class="header-text">DAILY LOOP (Day X)</text>
  
  <!-- Morning -->
  <rect x="400" y="340" width="400" height="90" class="box"/>
  <text x="600" y="365" class="header-text">Morning Briefing</text>
  <text x="600" y="385" class="small-text">• Weather (45% sunny, 30% cloudy, etc.)</text>
  <text x="600" y="400" class="small-text">• Prices • Expire lemons • Events (10-15%)</text>
  <text x="600" y="415" class="small-text">• News ticker</text>
  
  <!-- Rent Check -->
  <polygon points="600,460 680,500 600,540 520,500" class="decision"/>
  <text x="600" y="500" class="text">Can pay</text>
  <text x="600" y="515" class="text">rent?</text>
  
  <!-- Business -->
  <rect x="400" y="570" width="400" height="100" class="box"/>
  <text x="600" y="595" class="header-text">Business Decisions</text>
  <text x="600" y="615" class="small-text">• Set price ($0-10) • Buy ingredients</text>
  <text x="600" y="630" class="small-text">• Marketing (social=2 cups, paid=$5-30)</text>
  <text x="600" y="645" class="small-text">• Prepare cups (max 1000)</text>
  <text x="600" y="660" class="small-text">• Food truck: pick location</text>
  
  <!-- Selling -->
  <rect x="400" y="700" width="400" height="90" class="process"/>
  <text x="600" y="725" class="header-text">Automatic Selling</text>
  <text x="600" y="745" class="small-text">Demand = Base (25-50) × Weather × Price</text>
  <text x="600" y="760" class="small-text">× Marketing × Weekend × Events</text>
  <text x="600" y="775" class="small-text">Sold = MIN(Demand, Prepared, Inventory)</text>
  
  <!-- Summary -->
  <rect x="400" y="820" width="400" height="80" class="box"/>
  <text x="600" y="845" class="header-text">Day Summary</text>
  <text x="600" y="865" class="small-text">• Sales results • Profit/Loss</text>
  <text x="600" y="880" class="small-text">• 50% of leftover cups spoil</text>
  <text x="600" y="895" class="small-text">• Success message if matched well</text>
  
  <!-- Check -->
  <polygon points="600,930 680,970 600,1010 520,970" class="decision"/>
  <text x="600" y="970" class="text">Week end</text>
  <text x="600" y="985" class="text">or Day 28?</text>
  
  <!-- End Game -->
  <rect x="450" y="1040" width="300" height="50" class="terminal"/>
  <text x="600" y="1065" class="header-text">GAME OVER</text>
  <text x="600" y="1080" class="small-text">Final Score (A-F) or Bankruptcy</text>
  
  <!-- Side Panels -->
  <rect x="50" y="340" width="280" height="120" class="info"/>
  <text x="190" y="360" class="header-text">Weather &amp; Demand</text>
  <text x="190" y="380" class="small-text">Sunny: 1.5x (45% chance)</text>
  <text x="190" y="395" class="small-text">Cloudy: 1.0x (30%)</text>
  <text x="190" y="410" class="small-text">Rainy: 0.5x (17%)</text>
  <text x="190" y="425" class="small-text">Heatwave: 2.0x (5%)</text>
  <text x="190" y="440" class="small-text">Snowstorm: 0.2x (3%)</text>
  
  <rect x="870" y="340" width="280" height="100" class="info"/>
  <text x="1010" y="360" class="header-text">Cost Structure</text>
  <text x="1010" y="380" class="small-text">Per cup: $0.50-1.10</text>
  <text x="1010" y="395" class="small-text">Rent: Mall $10, Park $3, Truck $5</text>
  <text x="1010" y="410" class="small-text">Sweet spot: $1.50-2.50/cup</text>
  <text x="1010" y="425" class="small-text">Lemons expire in 1-3 days</text>
  
  <rect x="50" y="700" width="280" height="90" class="info"/>
  <text x="190" y="720" class="header-text">Marketing Boosts</text>
  <text x="190" y="740" class="small-text">None: 1.0x | Social (2 cups): 1.2x</text>
  <text x="190" y="755" class="small-text">Flyers ($5): 1.25-1.4x</text>
  <text x="190" y="770" class="small-text">Push ($10): 1.4x | Radio ($15): 1.35-1.6x</text>
  <text x="190" y="785" class="small-text">Agency ($30): 1.55x</text>
  
  <rect x="870" y="700" width="280" height="90" class="info"/>
  <text x="1010" y="720" class="header-text">Score Calculation</text>
  <text x="1010" y="740" class="small-text">Balance: 40%</text>
  <text x="1010" y="755" class="small-text">Avg Profit: 30%</text>
  <text x="1010" y="770" class="small-text">Customer Satisfaction: 30%</text>
  <text x="1010" y="785" class="small-text">Grade: A+ to F</text>
  
  <!-- Flow Arrows -->
  <path class="arrow" d="M 600 120 L 600 150"/>
  <path class="arrow" d="M 600 230 L 600 260"/>
  <path class="arrow" d="M 600 310 L 600 340"/>
  <path class="arrow" d="M 600 430 L 600 460"/>
  
  <!-- Bankruptcy -->
  <path class="arrow" d="M 520 500 L 380 500 L 380 1065 L 450 1065"/>
  <text x="480" y="495" class="label">No</text>
  
  <!-- Continue -->
  <path class="arrow" d="M 600 540 L 600 570"/>
  <text x="620" y="555" class="label">Yes</text>
  
  <path class="arrow" d="M 600 670 L 600 700"/>
  <path class="arrow" d="M 600 790 L 600 820"/>
  <path class="arrow" d="M 600 900 L 600 930"/>
  
  <!-- End or Continue -->
  <path class="arrow" d="M 600 1010 L 600 1040"/>
  <text x="620" y="1025" class="label">Yes</text>
  
  <!-- Loop Back -->
  <path class="arrow" d="M 520 970 L 350 970 L 350 285 L 450 285"/>
  <text x="480" y="965" class="label">No</text>
  
  <!-- Additional Info -->
  <rect x="400" y="1120" width="400" height="80" class="info"/>
  <text x="600" y="1140" class="header-text">Key Features</text>
  <text x="600" y="1160" class="small-text">• Save/Load game • Business journal</text>
  <text x="600" y="1175" class="small-text">• Weekly charts • Help system</text>
  <text x="600" y="1190" class="small-text">• Loan option (unlimited mode)</text>
</svg>
